<svg xmlns="http://www.w3.org/2000/svg" viewBox="0 0 1440 320"><path fill="#1C223C" fill-opacity="1" d="M0,0L75.8,224L151.6,192L227.4,64L303.2,160L378.9,0L454.7,256L530.5,96L606.3,128L682.1,64L757.9,192L833.7,32L909.5,288L985.3,64L1061.1,192L1136.8,160L1212.6,0L1288.4,192L1364.2,96L1440,192L1440,320L1364.2,320L1288.4,320L1212.6,320L1136.8,320L1061.1,320L985.3,320L909.5,320L833.7,320L757.9,320L682.1,320L606.3,320L530.5,320L454.7,320L378.9,320L303.2,320L227.4,320L151.6,320L75.8,320L0,320Z"></path></svg>